<svg xmlns="http://www.w3.org/2000/svg" viewBox="0 0 32 37.2"><defs><style>.cls-1{fill:none;stroke:#231f20;stroke-miterlimit:10}.cls-2{fill:#231f20}</style></defs><title>Ресурс 1compass</title><g id="Слой_2" data-name="Слой 2"><g id="Layer_1" data-name="Layer 1"><circle class="cls-1" cx="16" cy="21.2" r="15.5"/><circle class="cls-1" cx="16" cy="21.2" r="12.5"/><path class="cls-1" d="M14.22 19.38l7.19-3.6-3.59 7.2-3.6-3.6zm-.04.03l-3.59 7.2 7.19-3.6-3.6-3.6z"/><path class="cls-2" d="M15.28 3h.67v2h-.67zm0 6h1v3h-1zm0 21h1v3h-1z"/><path class="cls-2" transform="rotate(-90 5.78 20.5)" d="M5.28 19h1v3h-1z"/><path class="cls-2" transform="rotate(-90 26.78 20.5)" d="M26.28 19h1v3h-1z"/><path class="cls-2" d="M18.28 1v1h-5V1h5m1-1h-7v3h7V0z"/></g></g></svg>