<svg xmlns="http://www.w3.org/2000/svg" viewBox="0 0 32 37.2"><defs><style>.cls-1{fill:none;stroke:#231f20;stroke-miterlimit:10;}.cls-2{fill:#231f20;}</style></defs><title>Ресурс 1compass</title><g id="Слой_2" data-name="Слой 2"><g id="Layer_1" data-name="Layer 1"><circle class="cls-1" cx="16" cy="21.2" r="15.5"/><circle class="cls-1" cx="16" cy="21.2" r="12.5"/><polygon class="cls-1" points="14.22 19.38 21.41 15.78 17.82 22.98 14.22 19.38"/><polygon class="cls-1" points="14.18 19.41 10.59 26.61 17.78 23.01 14.18 19.41"/><rect class="cls-2" x="15.28" y="3" width="0.67" height="2"/><rect class="cls-2" x="15.28" y="9" width="1" height="3"/><rect class="cls-2" x="15.28" y="30" width="1" height="3"/><rect class="cls-2" x="5.28" y="19" width="1" height="3" transform="translate(-14.72 26.28) rotate(-90)"/><rect class="cls-2" x="26.28" y="19" width="1" height="3" transform="translate(6.28 47.28) rotate(-90)"/><path class="cls-2" d="M18.28,1V2h-5V1h5m1-1h-7V3h7V0Z"/></g></g></svg>