<svg xmlns="http://www.w3.org/2000/svg" class="iconSvg" fill="red" viewBox="0 0 21.26 18.5"><defs><style>.cls-1{fill:none;stroke:rgba(255,255,255,.7);stroke-linecap:round;stroke-linejoin:round;}.cls-2{fill:rgba(255,255,255,.7);}</style></defs><title>airРесурс 2air</title><g id="Слой_2" data-name="Слой 2"><g id="Layer_1" data-name="Layer 1"><line class="cls-1" x1="0.5" y1="9.91" x2="20.76" y2="9.91"/><path class="cls-1 iconSvg" d="M.5,12.94c2,0,2,.81,4,.81s2-.81,4-.81,2,.81,4.05.81,2-.81,4.06-.81,2,.81,4.06.81"/><circle class="cls-2" cx="1.45" cy="16.01" r="0.77"/><circle class="cls-2" cx="5.12" cy="17.73" r="0.77"/><circle class="cls-2" cx="8.02" cy="15.83" r="0.77"/><circle class="cls-2" cx="12.23" cy="17.26" r="0.77"/><circle class="cls-2" cx="16.5" cy="15.72" r="0.77"/><circle class="cls-2" cx="19.46" cy="17.32" r="0.77"/><path class="cls-1 iconSvg"  d="M7,.5c0,1-2,1-2,2s2,1,2,2-2,1-2,2"/><path class="cls-1 iconSvg" d="M11.4.5c0,1-2,1-2,2s2,1,2,2-2,1-2,2"/><path class="cls-1 iconSvg"  d="M15.84.5c0,1-2,1-2,2s2,1,2,2-2,1-2,2"/></g></g></svg>