<svg xmlns="http://www.w3.org/2000/svg" xmlns:xlink="http://www.w3.org/1999/xlink" viewBox="0 0 21.33 20.2" fill="rgba(255,255,255,.7)"><defs><style>.cls-1{fill:none;}.cls-2{clip-path:url(#clip-path);}</style><clipPath id="clip-path" transform="translate(0 -0.37)"><rect class="cls-1" width="21.54" height="21"/></clipPath></defs><title>brushРесурс 1</title><g id="Слой_2" data-name="Слой 2"><g id="Layer_1" data-name="Layer 1"><g class="cls-2"><path d="M21.33,2A1.67,1.67,0,0,0,18.47.86l-12,12a.82.82,0,0,0-.23.69L.1,19.69A.35.35,0,0,0,0,20a.36.36,0,0,0,.22.26A5.33,5.33,0,0,0,2,20.57a4.57,4.57,0,0,0,3.26-1.3l2.56-2.56a.35.35,0,0,0,.1-.32l-.19-1,.83-.83.13,0a1.11,1.11,0,0,0,.26,0,1.15,1.15,0,0,0,.82-.34l9.69-9.69,1.38-1.38A1.67,1.67,0,0,0,21.33,2Zm-3.42,3.1-.84-1.86.85-.85.84,1.86Zm-1.4,1.4-.84-1.86.85-.85.85,1.86ZM7.73,14.39,7.08,15a.36.36,0,0,0-.1.32l.19,1L4.76,18.75a4.06,4.06,0,0,1-3.71,1l5.64-5.64h0a.85.85,0,0,0,.21.08Zm1.53-.6a.44.44,0,0,1-.42.12L7.07,13.5l0,0,0,0v0a.1.1,0,0,1,0-.1l8.11-8.11L16,7.08ZM20.33,2.72l-1,1-.84-1.86L19,1.36a1,1,0,0,1,1.35,0,1,1,0,0,1,0,1.35Zm0,0" transform="translate(0 -0.37)"/></g><path d="M4.58,17l-.72.72a.36.36,0,0,0,.51.51l.72-.72A.36.36,0,0,0,4.58,17Zm0,0" transform="translate(0 -0.37)"/><path d="M3.14,18.42a.36.36,0,0,0,0,.51.37.37,0,0,0,.25.1.36.36,0,0,0,.25-.61.37.37,0,0,0-.51,0Zm0,0" transform="translate(0 -0.37)"/></g></g></svg>