<svg xmlns="http://www.w3.org/2000/svg" viewBox="0 0 18.87 17" fill="rgba(255,255,255,.7)"><title>childРесурс 1child</title><g id="Слой_2" data-name="Слой 2"><g id="Layer_1" data-name="Layer 1"><path d="M6.25,10.43a.75.75,0,1,1-.75-.75.75.75,0,0,1,.75.75Zm0,0"/><path d="M14.12,10.43a.75.75,0,1,1-.75-.75.75.75,0,0,1,.75.75Zm0,0"/><path d="M18.87,10.11A2.21,2.21,0,0,0,17,7.94V7.61a7.61,7.61,0,1,0-15.23,0v.33a2.21,2.21,0,0,0,0,4.35A4.41,4.41,0,0,0,4.13,16a10.93,10.93,0,0,0,5.3,1,10.93,10.93,0,0,0,5.3-1A4.41,4.41,0,0,0,17,12.29a2.21,2.21,0,0,0,1.85-2.18Zm-18.09,0a1.43,1.43,0,0,1,1-1.37v2.75a1.43,1.43,0,0,1-1-1.37Zm15.49,1.57a3.79,3.79,0,0,1-1.92,3.62,10.22,10.22,0,0,1-4.92.92,10.22,10.22,0,0,1-4.92-.92A3.79,3.79,0,0,1,2.6,11.68V7.61A6.85,6.85,0,0,1,7.47,1.07a3.09,3.09,0,0,1,3.29,2.7A1.56,1.56,0,0,1,9.2,5.32,1.17,1.17,0,0,1,8,4.15a.86.86,0,0,1,.86-.86.39.39,0,1,0,0-.78A1.64,1.64,0,0,0,7.25,4.15,2,2,0,0,0,9.2,6.1a2.34,2.34,0,0,0,2.34-2.34,3.34,3.34,0,0,0-1.09-2.33A4,4,0,0,0,9.53.78a6.84,6.84,0,0,1,6.74,6.83Zm.78-.19V8.74a1.43,1.43,0,0,1,0,2.75Zm0,0"/><path d="M10.94,11.51a2.14,2.14,0,0,1-3,0,.39.39,0,1,0-.55.55,2.92,2.92,0,0,0,4.12,0,.39.39,0,1,0-.55-.55Zm0,0"/></g></g></svg>