<svg xmlns="http://www.w3.org/2000/svg" viewBox="0 0 19 19"><defs><style>.cls-1{fill:rgba(255,255,255,.7);}.cls-2{fill:rgba(255,255,255,.7);}</style></defs><title>docРесурс 4doc</title><g id="Слой_2" data-name="Слой 2"><g id="Layer_1" data-name="Layer 1"><path class="cls-1" d="M16,1a2,2,0,0,1,2,2V16a2,2,0,0,1-2,2H3a2,2,0,0,1-2-2V3A2,2,0,0,1,3,1H16m0-1H3A3,3,0,0,0,0,3V16a3,3,0,0,0,3,3H16a3,3,0,0,0,3-3V3a3,3,0,0,0-3-3Z"/><path class="cls-1" d="M13,5V7H6V5h7m0-1H6A1,1,0,0,0,5,5V7A1,1,0,0,0,6,8h7a1,1,0,0,0,1-1V5a1,1,0,0,0-1-1Z"/><rect class="cls-1" x="7" y="15.08" width="5" height="0.83"/><rect class="cls-2" x="9" y="6" width="1" height="2"/></g></g></svg>