<svg xmlns="http://www.w3.org/2000/svg" viewBox="0 0 11.62 18" fill="rgba(255,255,255,.7)"><title>fingerРесурс 1finger</title><g id="Слой_2" data-name="Слой 2"><g id="Layer_1" data-name="Layer 1"><path d="M9.8,2.73C9.54,1,8.06,0,5.81,0s-3.73,1-4,2.73A5.82,5.82,0,0,0,0,6.94V17.59a.41.41,0,1,0,.82,0V6.94A5,5,0,0,1,1.77,4V8.29a4,4,0,0,0,.9,2.53l0,0a4,4,0,0,0,6.21,0L9,10.81a4,4,0,0,0,.89-2.52V4a5,5,0,0,1,.95,2.92V17.59a.41.41,0,1,0,.82,0V6.94A5.82,5.82,0,0,0,9.8,2.73ZM2.59,3.3C2.59,1.06,4.84.82,5.81.82S9,1.06,9,3.3v5a3.19,3.19,0,0,1-.45,1.64A4,4,0,0,0,3,9.93a3.2,3.2,0,0,1-.45-1.64Zm1,7.28a3.17,3.17,0,0,1,4.5,0,3.21,3.21,0,0,1-4.5,0Zm0,0"/></g></g></svg>