<svg xmlns="http://www.w3.org/2000/svg" viewBox="0 0 21.25 17" fill="rgba(255,255,255,.7)"><title>flowerРесурс 1flower</title><g id="Слой_2" data-name="Слой 2"><g id="Layer_1" data-name="Layer 1"><path d="M21.25,6.34a1.07,1.07,0,0,0-1-1h-.15a13.82,13.82,0,0,0-2.48.26,13.28,13.28,0,0,0-.67-2.82,1.06,1.06,0,0,0-1.42-.59,12.81,12.81,0,0,0-2,1.17,14.39,14.39,0,0,0-2.1-3,1.06,1.06,0,0,0-1.54,0,14.4,14.4,0,0,0-2.11,3,13.13,13.13,0,0,0-2-1.18,1.06,1.06,0,0,0-1.42.59,13.31,13.31,0,0,0-.67,2.82,13.78,13.78,0,0,0-2.48-.26H1a1.07,1.07,0,0,0-1,1c0,.2-.12,4.91,2.81,7.84C5.49,16.86,9.69,17,10.51,17h.23c.82,0,5-.14,7.7-2.81C21.37,11.26,21.26,6.54,21.25,6.34Zm-5.32-3.2a12.66,12.66,0,0,1,.62,2.68,11.2,11.2,0,0,0-1.89.71A11.63,11.63,0,0,0,14,4.33,12.38,12.38,0,0,1,15.93,3.14ZM10.63,1.06s3.19,3.33,3.19,7.44c0,3.94-2.93,7.16-3.16,7.41l-.07,0c-.37-.41-3.14-3.56-3.14-7.39C7.44,4.39,10.63,1.06,10.63,1.06ZM5.32,3.14a12.27,12.27,0,0,1,2,1.18,11.65,11.65,0,0,0-.7,2.22A11.24,11.24,0,0,0,4.7,5.83,12.67,12.67,0,0,1,5.32,3.14ZM1.06,6.38h.11A12,12,0,0,1,6.42,7.65c0,.28,0,.56,0,.85a12.6,12.6,0,0,0,2.79,7.35,9.61,9.61,0,0,1-5.6-2.41C.93,10.8,1.06,6.38,1.06,6.38Zm16.62,7.06a9.61,9.61,0,0,1-5.6,2.41A12.6,12.6,0,0,0,14.88,8.5c0-.29,0-.58,0-.86a12,12,0,0,1,5.24-1.27h.11S20.33,10.8,17.69,13.44Z"/></g></g></svg>