<svg xmlns="http://www.w3.org/2000/svg" xmlns:xlink="http://www.w3.org/1999/xlink" viewBox="0 0 10.53 21.95" fill="rgba(255,255,255,.7)"><defs><style>.cls-1{fill:none;}.cls-2{clip-path:url(#clip-path);}</style><clipPath id="clip-path" transform="translate(0 0)"><rect class="cls-1" width="10.55" height="22"/></clipPath></defs><title>footРесурс 1foot</title><g id="Слой_2" data-name="Слой 2"><g id="Layer_1" data-name="Layer 1"><g class="cls-2"><path d="M9.7,5.07V2.14A2.12,2.12,0,0,0,7.77,0,2.1,2.1,0,0,0,5.84,1h0a1.32,1.32,0,0,0-1.92,1.1h0a1.09,1.09,0,0,0-.27,0A1.32,1.32,0,0,0,2.33,3.34v0A1.32,1.32,0,0,0,1.17,4.69v.16h0c-.62,0-1,.48-1,1.21l0,1.44h0a5.69,5.69,0,0,0,0,3.1,9.42,9.42,0,0,0,.42,1.32,27.14,27.14,0,0,1,1.43,5.65c.67,3.81,2.55,4.37,3.61,4.37a2.55,2.55,0,0,0,.71-.09A3.29,3.29,0,0,0,7.86,21a4.8,4.8,0,0,0,1.07-4.14c-.51-4.23,0-5.64.7-7.18.06-.14.14-.28.23-.43a4.6,4.6,0,0,0,.68-1.93A3.14,3.14,0,0,0,9.7,5.07ZM9.31,3.21h0V4.65h0a3.7,3.7,0,0,0-2.59-1.3,3,3,0,0,0-.83.12h0V2.1A1.72,1.72,0,0,1,7.6.38h0A1.72,1.72,0,0,1,9.32,2.1v.74h0M5.23,1.19a.93.93,0,0,1,.43.1h0a2.09,2.09,0,0,0-.16.8V3.61h0a6.18,6.18,0,0,0-1.24.71h0l0-2.2a.94.94,0,0,1,.94-.94ZM3.64,2.41a.54.54,0,0,1,.26,0h0l0,2.16h0l-.59.49-.61.52h0l0-2.28a.94.94,0,0,1,.94-.94ZM2.32,3.77l0,2.18h0c-.31.25-.55.41-.73.53h0V4.69a.94.94,0,0,1,.77-.92ZM1.17,5.23V6.7h0l-.1.06A4.21,4.21,0,0,0,.6,7h0l0-1c0-.51.2-.78.6-.83Zm-.41,6a6.9,6.9,0,0,1-.19-.68C.21,9,.42,7.65.72,7.43a3.63,3.63,0,0,1,.53-.33A11,11,0,0,0,3.55,5.4C4.89,4.23,5.84,3.74,6.72,3.74A3.38,3.38,0,0,1,9.08,5l.28.31h0a3.35,3.35,0,0,1,.71,1.28h0l.07.38h0a2.37,2.37,0,0,1,0,.63h0L10,7.93h0A6.39,6.39,0,0,1,9.52,9c-.09.16-.17.31-.23.45-.76,1.6-1.26,3.06-.74,7.39a5.43,5.43,0,0,1-.33,2.9h0l-.2.38H8a3.18,3.18,0,0,1-.42.54,2.94,2.94,0,0,1-1.31.81h0a2.17,2.17,0,0,1-.6.08c-.94,0-2.62-.53-3.24-4.06A27.47,27.47,0,0,0,1,11.79L.9,11.59M9.36,5.27" transform="translate(0 0)"/></g></g></g></svg>