<svg xmlns="http://www.w3.org/2000/svg" viewBox="0 0 20 20" fill='rgba(255,255,255,.7)'><title>injectorРесурс 2injector</title><g id="Слой_2" data-name="Слой 2"><g id="Layer_1" data-name="Layer 1"><path d="M19.89,4.29,15.71.1a.36.36,0,0,0-.51,0L14.32,1a.36.36,0,0,0,0,.51l1.84,1.84L14.45,5,11.94,2.53a.36.36,0,0,0-.51.51l.64.64-7.6,7.6a.36.36,0,0,0,0,.51l.75.75-1,1a.36.36,0,0,0,0,.51l.62.62L.1,19.39a.36.36,0,0,0,.51.51L5.3,15.21l.62.62a.36.36,0,0,0,.51,0l1-1,.75.75a.36.36,0,0,0,.51,0l7.6-7.6.64.64a.36.36,0,0,0,.51-.51L15,5.55l1.7-1.7L18.5,5.68a.36.36,0,0,0,.51,0l.89-.89A.36.36,0,0,0,19.89,4.29ZM6.17,15.06,4.94,13.83l.8-.8L7,14.27Zm2.31-.3L5.24,11.52l7.34-7.34,3.24,3.24ZM18.75,4.93,15.07,1.25l.38-.38,3.68,3.68Z"/><path d="M12,7.16l-.67-.67a.36.36,0,0,0-.51.51l.67.67A.36.36,0,1,0,12,7.16Z"/><path d="M9.4,8.37a.36.36,0,1,0-.51.51l.67.67A.36.36,0,1,0,10.08,9Z"/><path d="M7.52,10.25a.36.36,0,0,0-.51.51l.67.67a.36.36,0,0,0,.51-.51Z"/></g></g></svg>