<svg xmlns="http://www.w3.org/2000/svg" viewBox="0 0 17 18.89"><defs><style>.cls-1{fill:none;stroke:rgba(255,255,255,.7);stroke-miterlimit:10;}.cls-2{fill:rgba(255,255,255,.7);}</style></defs><title>maskРесурс 2mask</title><g id="Слой_2" data-name="Слой 2"><g id="Layer_1" data-name="Layer 1"><circle class="cls-1" cx="12.28" cy="7.24" r="2.83"/><circle class="cls-2" cx="12.91" cy="6.61" r="0.31"/><circle class="cls-2" cx="12.91" cy="7.87" r="0.31"/><circle class="cls-2" cx="11.65" cy="7.87" r="0.31"/><circle class="cls-2" cx="11.65" cy="6.61" r="0.31"/><circle class="cls-1" cx="4.72" cy="7.24" r="2.83"/><circle class="cls-2" cx="5.35" cy="6.61" r="0.31"/><circle class="cls-2" cx="5.35" cy="7.87" r="0.31"/><circle class="cls-2" cx="4.09" cy="7.87" r="0.31"/><circle class="cls-2" cx="4.09" cy="6.61" r="0.31"/><path class="cls-1" d="M11.33,12c0,1.25-1.35,2.27-3,2.27s-3-1-3-2.27"/><path class="cls-2" d="M11.18,1A4.84,4.84,0,0,1,16,5.85v4.5a7.5,7.5,0,1,1-15,0V5.85A4.84,4.84,0,0,1,5.82,1h5.37m0-1H5.82A5.84,5.84,0,0,0,0,5.85v4.5a8.5,8.5,0,1,0,17,0V5.85A5.84,5.84,0,0,0,11.18,0Z"/></g></g></svg>