<svg xmlns="http://www.w3.org/2000/svg" viewBox="0 0 19.18 19" fill='rgba(255,255,255,.7)'><title>sunРесурс 1sun</title><g id="Слой_2" data-name="Слой 2"><g id="Layer_1" data-name="Layer 1"><path d="M9.59,3.85a5.58,5.58,0,1,0,5.58,5.58A5.59,5.59,0,0,0,9.59,3.85Zm0,10.56a5,5,0,1,1,5-5A5,5,0,0,1,9.59,14.41Zm9.28-4.12L17.44,9.13A.85.85,0,0,1,17.28,8l1-1.52a.84.84,0,0,0-.59-1.3L15.9,5a.85.85,0,0,1-.75-.86l.06-1.84A.84.84,0,0,0,14,1.49l-1.65.82A.85.85,0,0,1,11.25,2L10.3.41a.84.84,0,0,0-1.43,0L7.92,2a.85.85,0,0,1-1.09.32L5.18,1.49A.84.84,0,0,0,4,2.26L4,4.11A.85.85,0,0,1,3.28,5l-1.83.21a.84.84,0,0,0-.59,1.3L1.9,8a.85.85,0,0,1-.16,1.13L.31,10.29a.84.84,0,0,0,.2,1.42l1.7.71a.85.85,0,0,1,.47,1l-.57,1.75A.84.84,0,0,0,3,16.29L4.86,16a.85.85,0,0,1,1,.62l.47,1.78a.83.83,0,0,0,.57.59.84.84,0,0,0,.24,0,.83.83,0,0,0,.56-.22L9,17.53a.85.85,0,0,1,1.14,0l1.36,1.25a.84.84,0,0,0,1.37-.4l.47-1.78a.85.85,0,0,1,1-.62l1.82.32a.84.84,0,0,0,.94-1.08l-.57-1.75a.85.85,0,0,1,.47-1l1.7-.71a.84.84,0,0,0,.2-1.42Zm-.3.68a.23.23,0,0,1-.14.18l-1.7.71a1.46,1.46,0,0,0-.81,1.78l.57,1.75a.23.23,0,0,1-.26.3l-1.82-.32a1.45,1.45,0,0,0-1.65,1.06l-.47,1.78a.23.23,0,0,1-.38.11l-1.36-1.25a1.46,1.46,0,0,0-2,0L7.25,18.33a.23.23,0,0,1-.38-.11l-.47-1.78a1.46,1.46,0,0,0-1.65-1.06l-1.82.32a.23.23,0,0,1-.26-.3l.57-1.75a1.46,1.46,0,0,0-.81-1.78l-1.7-.71a.23.23,0,0,1-.06-.39L2.12,9.6A1.46,1.46,0,0,0,2.4,7.65l-1-1.52a.23.23,0,0,1,.16-.36l1.83-.21A1.46,1.46,0,0,0,4.63,4.09L4.58,2.25A.23.23,0,0,1,4.91,2l1.65.82A1.46,1.46,0,0,0,8.44,2.3L9.39.72a.23.23,0,0,1,.39,0l.95,1.58a1.46,1.46,0,0,0,1.88.55L14.27,2a.23.23,0,0,1,.33.21l-.06,1.84a1.46,1.46,0,0,0,1.28,1.48l1.83.21a.23.23,0,0,1,.16.36l-1,1.52a1.46,1.46,0,0,0,.28,1.94l1.43,1.16A.23.23,0,0,1,18.57,11Z"/></g></g></svg>