<svg xmlns="http://www.w3.org/2000/svg" viewBox="0 0 20 9.34" fill='rgba(255,255,255,.7)'><title>underpantsРесурс 1underpants</title><g id="Слой_2" data-name="Слой 2"><g id="Layer_1" data-name="Layer 1"><path d="M9.18,1.07l.42.25-.42.25a.21.21,0,1,0,.21.35l.6-.36.6.36a.2.2,0,0,0,.11,0,.21.21,0,0,0,.11-.38l-.42-.25.42-.25A.21.21,0,1,0,10.6.72l-.6.36L9.4.72a.21.21,0,1,0-.21.35Z"/><path d="M19.92,0H.08L0,0A.08.08,0,0,0,0,.08V2.49a.27.27,0,0,0,0,.08l0,.06h0L6.54,9.28h0l0,0h0l0,0h6.76l0,0h0l0,0h0l6.48-6.65,0,0h0l0,0v0s0,0,0,0V.08A.08.08,0,0,0,19.92,0ZM1.25,3.27A37.8,37.8,0,0,1,4.87,5.35a5.77,5.77,0,0,1,1.5,3.17ZM13.63,8.52h0a5.77,5.77,0,0,1,1.5-3.17,37.82,37.82,0,0,1,3.62-2.09h0Zm6-6.16A51.26,51.26,0,0,0,14.87,5c-1.12.87-1.65,3.44-1.74,3.91H6.86c-.09-.47-.62-3-1.74-3.91C4.31,4.39.87,2.6.41,2.36V.41H19.59Z"/></g></g></svg>