<svg xmlns="http://www.w3.org/2000/svg" xmlns:xlink="http://www.w3.org/1999/xlink" viewBox="0 0 24.09 13.54" fill="rgba(255,255,255,.7)"><defs><style>.cls-1{fill:none;}.cls-2{clip-path:url(#clip-path);}</style><clipPath id="clip-path" transform="translate(0 -0.01)"><rect class="cls-1" width="24.39" height="14"/></clipPath></defs><title>weightРесурс 1weight</title><g id="Слой_2" data-name="Слой 2"><g id="Layer_1" data-name="Layer 1"><g class="cls-2"><path d="M23.72,4.61a1.26,1.26,0,0,0-1-.47H22.2V3.7a1.49,1.49,0,0,0-1.54-1.44h-.72V1.44a1.42,1.42,0,0,0-.45-1,1.59,1.59,0,0,0-2.11,0,1.42,1.42,0,0,0-.45,1V5.27H7.15V1.44a1.42,1.42,0,0,0-.45-1,1.59,1.59,0,0,0-2.11,0,1.42,1.42,0,0,0-.45,1v.82H3.33a1.5,1.5,0,0,0-1,.39,1.33,1.33,0,0,0-.44,1v.52H1.34a1.27,1.27,0,0,0-1,.47A1.64,1.64,0,0,0,0,5.67v2.2A1.65,1.65,0,0,0,.37,8.93a1.27,1.27,0,0,0,1,.47h.54v.52a1.33,1.33,0,0,0,.44,1,1.5,1.5,0,0,0,1,.39h.81v.82a1.42,1.42,0,0,0,.45,1,1.55,1.55,0,0,0,2.11,0,1.42,1.42,0,0,0,.45-1V8.28h9.79v3.83a1.42,1.42,0,0,0,.45,1,1.55,1.55,0,0,0,2.11,0,1.42,1.42,0,0,0,.45-1v-.82h.72A1.49,1.49,0,0,0,22.2,9.85V9.41h.55a1.27,1.27,0,0,0,1-.47,1.65,1.65,0,0,0,.37-1.06V5.67a1.65,1.65,0,0,0-.37-1.05Zm-22.38,4a.51.51,0,0,1-.39-.2.91.91,0,0,1-.19-.58V5.67A.9.9,0,0,1,.95,5.1a.52.52,0,0,1,.39-.2h.54V8.66Zm2,1.88a.75.75,0,0,1-.5-.19.57.57,0,0,1-.19-.42V3.62a.57.57,0,0,1,.19-.42A.76.76,0,0,1,3.33,3h.81v7.53ZM6.4,12.11a.66.66,0,0,1-.21.48.83.83,0,0,1-1.08,0,.66.66,0,0,1-.21-.48V1.44A.66.66,0,0,1,5.11,1,.8.8,0,0,1,6.19,1a.66.66,0,0,1,.21.48Zm.75-4.58V6h9.79v1.5Zm12,4.58a.65.65,0,0,1-.21.48.83.83,0,0,1-1.08,0,.65.65,0,0,1-.21-.48V1.44A.66.66,0,0,1,17.9,1,.8.8,0,0,1,19,1a.65.65,0,0,1,.21.48Zm2.26-2.26a.74.74,0,0,1-.78.69h-.72V3h.72a.74.74,0,0,1,.78.69Zm1.88-2a.91.91,0,0,1-.19.57.51.51,0,0,1-.39.2H22.2V4.89h.55a.51.51,0,0,1,.39.2.9.9,0,0,1,.19.57Zm0,0" transform="translate(0 -0.01)"/></g></g></g></svg>